<?xml version="1.0" encoding="UTF-8" standalone="no"?>
<!DOCTYPE svg PUBLIC "-//W3C//DTD SVG 1.1//EN"
 "http://www.w3.org/Graphics/SVG/1.1/DTD/svg11.dtd">
<!-- Generated by graphviz version 12.0.0 (20240803.0821)
 -->
<!-- Pages: 1 -->
<svg width="2542pt" height="1651pt"
 viewBox="0.00 0.00 610.00 396.25" xmlns="http://www.w3.org/2000/svg" xmlns:xlink="http://www.w3.org/1999/xlink">
<g id="graph0" class="graph" transform="scale(4.16667 4.16667) rotate(0) translate(4 392.25)">
<polygon fill="white" stroke="none" points="-4,4 -4,-392.25 606,-392.25 606,4 -4,4"/>
<text text-anchor="middle" x="301" y="-372.85" font-family="Times,serif" font-size="12.00">Rank 1 | score 7.00 | atomic economy 0.912</text>
<!-- rxn_1_1 -->
<g id="node1" class="node">
<title>rxn_1_1</title>
<polygon fill="none" stroke="black" points="214,-153 138,-153 138,-117 214,-117 214,-153"/>
<text text-anchor="middle" x="176" y="-131.88" font-family="Helvetica,sans-Serif" font-size="10.00">rule0004_13</text>
</g>
<!-- mol_7841aed17e01 -->
<g id="node5" class="node">
<title>mol_7841aed17e01</title>
<image xlink:href="/mnt/data.ese/nfs/users/sghosh6/DTRA_project/MACAW/doranet/scripts/RetroTide_basidalinPrecursor_set2/doranet_output/starter_00001/doranet_publication_figures/pathway_rank01_node_imgs/mol_7841aed17e01.png" width="100px" height="76px" preserveAspectRatio="xMinYMin meet" x="251" y="-269"/>
</g>
<!-- rxn_1_1&#45;&gt;mol_7841aed17e01 -->
<g id="edge4" class="edge">
<title>rxn_1_1&#45;&gt;mol_7841aed17e01</title>
<path fill="none" stroke="black" d="M200.42,-153.28C212.08,-162.38 226.75,-173.83 241.22,-185.13"/>
<polygon fill="black" stroke="black" points="238.95,-187.79 248.98,-191.18 243.25,-182.27 238.95,-187.79"/>
</g>
<!-- mol_f186217753c3 -->
<g id="node6" class="node">
<title>mol_f186217753c3</title>
<image xlink:href="/mnt/data.ese/nfs/users/sghosh6/DTRA_project/MACAW/doranet/scripts/RetroTide_basidalinPrecursor_set2/doranet_output/starter_00001/doranet_publication_figures/pathway_rank01_node_imgs/mol_f186217753c3.png" width="100px" height="76px" preserveAspectRatio="xMinYMin meet" x="251" y="-173"/>
</g>
<!-- rxn_1_1&#45;&gt;mol_f186217753c3 -->
<g id="edge5" class="edge">
<title>rxn_1_1&#45;&gt;mol_f186217753c3</title>
<path fill="none" stroke="black" d="M214.24,-135C222.02,-135 230.41,-135 238.8,-135"/>
<polygon fill="black" stroke="black" points="238.66,-138.5 248.66,-135 238.66,-131.5 238.66,-138.5"/>
</g>
<!-- mol_0b8b6e67d277 -->
<g id="node7" class="node">
<title>mol_0b8b6e67d277</title>
<image xlink:href="/mnt/data.ese/nfs/users/sghosh6/DTRA_project/MACAW/doranet/scripts/RetroTide_basidalinPrecursor_set2/doranet_output/starter_00001/doranet_publication_figures/pathway_rank01_node_imgs/mol_0b8b6e67d277.png" width="100px" height="76px" preserveAspectRatio="xMinYMin meet" x="251" y="-77"/>
</g>
<!-- rxn_1_1&#45;&gt;mol_0b8b6e67d277 -->
<g id="edge6" class="edge">
<title>rxn_1_1&#45;&gt;mol_0b8b6e67d277</title>
<path fill="none" stroke="black" d="M200.42,-116.72C212.08,-107.62 226.75,-96.17 241.22,-84.87"/>
<polygon fill="black" stroke="black" points="243.25,-87.73 248.98,-78.82 238.95,-82.21 243.25,-87.73"/>
</g>
<!-- mol_f0432a69da49 -->
<g id="node2" class="node">
<title>mol_f0432a69da49</title>
<image xlink:href="/mnt/data.ese/nfs/users/sghosh6/DTRA_project/MACAW/doranet/scripts/RetroTide_basidalinPrecursor_set2/doranet_output/starter_00001/doranet_publication_figures/pathway_rank01_node_imgs/mol_f0432a69da49.png" width="100px" height="76px" preserveAspectRatio="xMinYMin meet" x="1" y="-269"/>
</g>
<!-- mol_f0432a69da49&#45;&gt;rxn_1_1 -->
<g id="edge1" class="edge">
<title>mol_f0432a69da49&#45;&gt;rxn_1_1</title>
<path fill="none" stroke="black" d="M101.67,-192.23C115.52,-181.43 130.19,-169.97 142.74,-160.18"/>
<polygon fill="black" stroke="black" points="144.54,-163.21 150.27,-154.3 140.24,-157.69 144.54,-163.21"/>
</g>
<!-- mol_add0fb8604dc -->
<g id="node3" class="node">
<title>mol_add0fb8604dc</title>
<image xlink:href="/mnt/data.ese/nfs/users/sghosh6/DTRA_project/MACAW/doranet/scripts/RetroTide_basidalinPrecursor_set2/doranet_output/starter_00001/doranet_publication_figures/pathway_rank01_node_imgs/mol_add0fb8604dc.png" width="100px" height="76px" preserveAspectRatio="xMinYMin meet" x="1" y="-173"/>
</g>
<!-- mol_add0fb8604dc&#45;&gt;rxn_1_1 -->
<g id="edge2" class="edge">
<title>mol_add0fb8604dc&#45;&gt;rxn_1_1</title>
<path fill="none" stroke="black" d="M101.67,-135C109.74,-135 118.08,-135 126.13,-135"/>
<polygon fill="black" stroke="black" points="126.12,-138.5 136.12,-135 126.12,-131.5 126.12,-138.5"/>
</g>
<!-- mol_774011b6b318 -->
<g id="node4" class="node">
<title>mol_774011b6b318</title>
<image xlink:href="/mnt/data.ese/nfs/users/sghosh6/DTRA_project/MACAW/doranet/scripts/RetroTide_basidalinPrecursor_set2/doranet_output/starter_00001/doranet_publication_figures/pathway_rank01_node_imgs/mol_774011b6b318.png" width="100px" height="76px" preserveAspectRatio="xMinYMin meet" x="1" y="-77"/>
</g>
<!-- mol_774011b6b318&#45;&gt;rxn_1_1 -->
<g id="edge3" class="edge">
<title>mol_774011b6b318&#45;&gt;rxn_1_1</title>
<path fill="none" stroke="black" d="M101.67,-77.77C115.52,-88.57 130.19,-100.03 142.74,-109.82"/>
<polygon fill="black" stroke="black" points="140.24,-112.31 150.27,-115.7 144.54,-106.79 140.24,-112.31"/>
</g>
<!-- rxn_1_2 -->
<g id="node8" class="node">
<title>rxn_1_2</title>
<polygon fill="none" stroke="black" points="464,-201 388,-201 388,-165 464,-165 464,-201"/>
<text text-anchor="middle" x="426" y="-179.88" font-family="Helvetica,sans-Serif" font-size="10.00">rule0043_12</text>
</g>
<!-- mol_0b8b6e67d277&#45;&gt;rxn_1_2 -->
<g id="edge8" class="edge">
<title>mol_0b8b6e67d277&#45;&gt;rxn_1_2</title>
<path fill="none" stroke="black" d="M343.45,-77.79C346.4,-80.86 349.28,-83.95 352,-87 371.55,-108.93 391.59,-135.66 405.72,-155.33"/>
<polygon fill="black" stroke="black" points="402.82,-157.29 411.47,-163.41 408.52,-153.24 402.82,-157.29"/>
</g>
<!-- mol_860b0b25573e -->
<g id="node10" class="node">
<title>mol_860b0b25573e</title>
<image xlink:href="/mnt/data.ese/nfs/users/sghosh6/DTRA_project/MACAW/doranet/scripts/RetroTide_basidalinPrecursor_set2/doranet_output/starter_00001/doranet_publication_figures/pathway_rank01_node_imgs/mol_860b0b25573e.png" width="100px" height="76px" preserveAspectRatio="xMinYMin meet" x="501" y="-269"/>
</g>
<!-- rxn_1_2&#45;&gt;mol_860b0b25573e -->
<g id="edge9" class="edge">
<title>rxn_1_2&#45;&gt;mol_860b0b25573e</title>
<path fill="none" stroke="black" d="M464.24,-197.53C472.28,-200.67 480.98,-204.07 489.65,-207.45"/>
<polygon fill="black" stroke="black" points="488.17,-210.63 498.76,-211 490.72,-204.11 488.17,-210.63"/>
</g>
<!-- mol_bf4d654eb795 -->
<g id="node11" class="node">
<title>mol_bf4d654eb795</title>
<image xlink:href="/mnt/data.ese/nfs/users/sghosh6/DTRA_project/MACAW/doranet/scripts/RetroTide_basidalinPrecursor_set2/doranet_output/starter_00001/doranet_publication_figures/pathway_rank01_node_imgs/mol_bf4d654eb795.png" width="100px" height="76px" preserveAspectRatio="xMinYMin meet" x="501" y="-173"/>
</g>
<!-- rxn_1_2&#45;&gt;mol_bf4d654eb795 -->
<g id="edge10" class="edge">
<title>rxn_1_2&#45;&gt;mol_bf4d654eb795</title>
<path fill="none" stroke="black" d="M464.24,-168.47C472.28,-165.33 480.98,-161.93 489.65,-158.55"/>
<polygon fill="black" stroke="black" points="490.72,-161.89 498.76,-155 488.17,-155.37 490.72,-161.89"/>
</g>
<!-- mol_d377a70a194c -->
<g id="node9" class="node">
<title>mol_d377a70a194c</title>
<image xlink:href="/mnt/data.ese/nfs/users/sghosh6/DTRA_project/MACAW/doranet/scripts/RetroTide_basidalinPrecursor_set2/doranet_output/starter_00001/doranet_publication_figures/pathway_rank01_node_imgs/mol_d377a70a194c.png" width="100px" height="76px" preserveAspectRatio="xMinYMin meet" x="251" y="-365"/>
</g>
<!-- mol_d377a70a194c&#45;&gt;rxn_1_2 -->
<g id="edge7" class="edge">
<title>mol_d377a70a194c&#45;&gt;rxn_1_2</title>
<path fill="none" stroke="black" d="M343.45,-288.21C346.4,-285.14 349.28,-282.05 352,-279 371.55,-257.07 391.59,-230.34 405.72,-210.67"/>
<polygon fill="black" stroke="black" points="408.52,-212.76 411.47,-202.59 402.82,-208.71 408.52,-212.76"/>
</g>
</g>
</svg>
